<?xml version="1.0" standalone="no"?>
<!DOCTYPE svg PUBLIC "-//W3C//DTD SVG 20010904//EN"
 "http://www.w3.org/TR/2001/REC-SVG-20010904/DTD/svg10.dtd">
<svg version="1.0" xmlns="http://www.w3.org/2000/svg"
 width="4584.000000pt" height="3084.000000pt" viewBox="0 0 4584.000000 3084.000000"
 preserveAspectRatio="xMidYMid meet">

<g transform="translate(0.000000,3084.000000) scale(0.100000,-0.100000)"
fill="#000000" stroke="none">
<path d="M50 15415 l0 -15385 22865 0 22865 0 0 15385 0 15385 -22865 0
-22865 0 0 -15385z m12884 3003 c-9 -13 -80 -79 -157 -148 -77 -69 -176 -165
-221 -213 -234 -256 -769 -782 -808 -796 -20 -7 -2 19 53 76 77 81 81 92 13
39 -95 -73 -255 -231 -214 -209 19 10 46 26 59 36 47 34 44 16 -6 -35 -48 -50
-108 -149 -97 -161 3 -3 1 -15 -6 -26 -15 -29 4 -27 27 2 75 97 357 427 364
427 5 0 9 -8 9 -17 0 -12 21 3 63 45 34 34 66 62 70 62 19 0 3 -53 -28 -94
-19 -26 -35 -50 -35 -55 0 -10 -76 -104 -143 -179 -25 -28 -36 -49 -33 -60 5
-14 -2 -20 -26 -27 -26 -8 -33 -15 -32 -35 1 -14 4 -32 8 -40 5 -13 -9 -21
-66 -39 -64 -21 -79 -31 -128 -85 -114 -127 -203 -215 -213 -213 -6 1 -11 -3
-12 -9 0 -6 -49 -63 -110 -128 -68 -73 -125 -144 -149 -188 -34 -60 -36 -69
-18 -59 33 18 27 -4 -9 -31 -16 -13 -49 -39 -71 -58 -23 -19 -38 -29 -34 -22
16 27 -11 9 -34 -23 -27 -37 -47 -47 -30 -15 20 38 2 20 -23 -22 -14 -24 -83
-104 -154 -177 -70 -74 -121 -131 -113 -127 8 4 4 -2 -10 -13 -14 -11 -28 -21
-32 -21 -5 0 -8 -5 -8 -10 0 -7 7 -7 21 1 27 14 22 5 -38 -72 -24 -30 -43 -58
-43 -61 0 -16 92 -142 134 -184 25 -25 58 -67 73 -92 15 -26 50 -72 78 -102
28 -30 61 -70 74 -89 35 -49 107 -112 162 -143 27 -14 86 -56 132 -92 45 -36
134 -104 197 -151 63 -47 141 -108 172 -135 31 -28 60 -50 65 -50 4 0 35 -28
68 -63 33 -35 44 -45 25 -23 -50 59 124 -117 271 -275 165 -176 532 -485 651
-547 111 -59 164 -98 289 -217 92 -87 246 -227 399 -366 33 -29 39 -39 23 -34
-35 10 -28 0 38 -50 l61 -47 37 34 c65 60 155 134 196 160 42 27 73 59 117
118 14 19 72 85 128 145 56 61 111 126 123 146 11 20 36 46 54 59 18 12 49 43
70 69 21 25 85 93 143 151 58 57 98 100 90 95 -39 -23 200 226 564 590 221
220 475 479 565 575 90 96 191 199 223 228 32 30 93 100 136 156 l78 102 -92
105 c-50 57 -90 106 -88 108 3 3 -101 111 -231 241 -129 130 -235 242 -235
249 0 7 -24 38 -54 69 -29 31 -69 82 -89 112 -41 64 -105 127 -162 160 -22 13
-76 58 -120 100 -44 42 -102 91 -130 110 -27 18 -74 56 -104 84 l-54 51 38
-50 38 -50 -46 50 c-25 28 -43 54 -39 59 3 5 1 6 -5 3 -12 -8 -243 224 -243
245 0 8 -32 45 -70 82 -68 66 -81 93 -37 81 16 -5 11 3 -17 28 -36 31 -38 35
-21 44 17 10 17 13 -12 49 -45 56 -84 90 -213 189 -63 48 -125 102 -138 121
-22 33 -40 47 -27 22 4 -7 -13 9 -37 36 -24 27 -43 54 -43 60 0 6 -4 11 -10
11 -17 1 -65 37 -76 58 -9 15 -8 18 3 12 7 -4 -7 14 -32 40 -40 42 -42 46 -15
31 30 -16 103 -75 75 -61 -27 14 3 -11 42 -34 34 -20 37 -21 32 -4 -5 15 -3
15 7 -2 22 -37 63 -77 141 -136 42 -32 122 -99 178 -149 56 -49 106 -90 110
-90 8 0 28 -43 34 -75 12 -62 21 -78 60 -104 22 -15 50 -30 61 -33 11 -3 28
-9 38 -13 17 -7 18 -6 6 13 -7 11 -16 19 -20 17 -3 -3 -39 42 -79 98 -70 99
-187 222 -254 268 -18 12 -45 42 -60 66 -14 24 -30 42 -35 38 -5 -3 -19 8 -31
25 -12 17 -25 28 -28 26 -10 -6 -47 23 -39 30 4 4 -12 29 -34 55 -23 27 -37
49 -32 49 14 0 95 -71 89 -78 -3 -3 9 -16 26 -29 20 -15 34 -19 38 -12 4 6 13
-4 20 -21 14 -35 163 -175 186 -175 7 0 75 -61 149 -134 129 -129 173 -160
125 -89 -13 18 -52 63 -88 99 -60 62 -63 67 -42 74 21 7 21 8 -16 46 -35 36
-36 39 -16 39 17 0 27 10 38 35 19 47 40 45 106 -9 44 -36 59 -42 85 -39 28 5
41 -3 110 -67 43 -39 105 -98 139 -132 49 -49 66 -59 88 -56 25 3 29 -2 50
-54 30 -74 74 -125 259 -304 132 -127 250 -221 306 -242 14 -5 14 -3 2 11 -7
9 -9 17 -4 17 11 0 63 -53 63 -64 0 -5 17 -24 38 -43 l37 -35 -60 32 -60 32
34 -36 c19 -20 39 -36 43 -36 15 0 162 -113 248 -190 47 -42 208 -180 359
-306 150 -126 283 -237 295 -247 43 -38 -81 38 -156 94 -43 32 -78 57 -78 55
0 -2 104 -96 231 -211 154 -138 235 -218 245 -241 17 -41 18 -114 2 -149 -9
-21 -8 -32 5 -61 21 -44 22 -126 2 -169 -9 -17 -243 -252 -520 -521 -277 -268
-503 -489 -502 -491 11 -10 50 16 77 53 32 41 74 75 130 103 14 7 3 -6 -25
-29 -27 -23 -155 -149 -284 -279 -179 -181 -250 -260 -305 -341 -39 -58 -115
-150 -168 -206 -54 -56 -98 -105 -98 -110 0 -4 -39 -49 -87 -100 -49 -51 -105
-112 -126 -136 -20 -24 -35 -36 -32 -27 4 11 0 15 -15 14 -17 -1 -180 -168
-180 -184 0 -3 -139 -112 -309 -241 -171 -129 -310 -239 -311 -245 0 -5 -40
-53 -88 -106 -48 -53 -109 -125 -137 -161 -57 -76 -96 -104 -165 -120 -38 -9
-62 -9 -100 0 -34 8 -58 8 -76 2 -46 -18 -125 -11 -181 14 -36 17 -63 40 -91
78 -40 54 -101 115 -88 88 12 -25 -73 72 -101 114 -14 22 -268 286 -564 586
-511 519 -543 549 -613 584 -114 56 -167 100 -532 447 -187 178 -394 371 -459
429 -141 124 -362 328 -390 360 -11 12 -56 50 -100 83 -111 84 -245 224 -283
294 -34 64 -58 178 -47 221 4 15 10 81 14 147 13 206 42 251 280 425 131 96
211 163 311 264 74 75 139 136 144 136 5 0 1 -10 -10 -22 -45 -54 347 326 640
618 391 392 488 486 475 462 -22 -41 29 -9 115 71 51 48 52 41 4 -20 -15 -20
-28 -41 -28 -47 0 -13 -73 -112 -193 -260 l-99 -124 70 39 c65 36 94 65 342
344 149 167 305 335 346 373 41 37 84 86 95 107 10 22 24 39 29 39 9 0 103 86
165 150 72 75 123 122 139 132 38 21 -27 -55 -197 -231 -92 -96 -184 -199
-204 -229 -19 -30 -55 -76 -79 -103 -80 -91 -45 -64 87 67 179 176 199 194
209 194 5 0 20 16 34 36 13 19 39 43 57 53 19 10 44 33 57 52 13 19 26 32 29
30 3 -2 25 16 49 40 24 24 44 39 44 34 0 -6 5 -2 11 8 5 9 15 17 20 17 6 0 29
16 52 35 44 38 59 40 31 3z m792 -486 c-4 -3 -14 2 -24 12 -16 18 -16 18 6 6
13 -6 21 -14 18 -18z m-797 -1151 c253 -258 461 -474 461 -480 0 -7 4 -10 8
-7 5 3 30 -16 56 -43 l46 -47 -375 -264 c-207 -144 -378 -267 -381 -272 -4 -6
363 -517 475 -659 11 -14 18 -34 15 -45 -3 -11 5 -34 18 -53 28 -42 49 -52 41
-19 -3 13 39 -37 93 -111 55 -73 132 -177 171 -230 l73 -96 -133 -127 c-72
-70 -134 -128 -138 -128 -3 0 -189 252 -415 560 -394 540 -409 559 -412 522
-1 -20 -11 -320 -21 -665 -11 -346 -21 -631 -24 -633 -3 -3 -76 33 -163 78
l-159 84 -3 1552 -2 1552 154 0 153 0 462 -469z m1319 354 l142 -88 0 -1038 0
-1039 -26 0 c-22 0 -24 -3 -19 -22 4 -13 15 -35 26 -50 22 -32 25 -60 5 -52
-11 4 -13 -7 -9 -63 2 -37 10 -78 16 -91 8 -17 8 -31 0 -53 -6 -16 -7 -29 -2
-29 5 0 9 -97 9 -228 l0 -229 -184 -86 c-101 -48 -187 -87 -190 -87 -3 0 -6
406 -6 903 l0 903 -152 -51 c-216 -74 -197 -69 -191 -45 4 15 1 20 -16 20 -19
0 -20 -3 -11 -21 7 -11 10 -22 8 -24 -2 -2 -140 -51 -306 -108 l-302 -104 0
171 0 171 508 190 507 191 3 538 2 538 23 -14 c12 -8 86 -55 165 -103z m4957
-478 c322 -94 505 -337 507 -672 1 -220 -58 -373 -196 -511 -121 -119 -270
-186 -448 -201 -43 -3 -78 -8 -78 -10 0 -2 169 -240 375 -529 206 -289 375
-528 375 -533 0 -4 -31 -9 -70 -10 l-69 -2 -43 58 c-24 32 -196 276 -383 541
l-340 482 -192 0 -191 0 0 54 1 54 321 4 c262 4 332 8 381 22 263 74 425 294
425 576 0 274 -159 489 -420 567 -46 14 -126 17 -487 20 l-433 4 0 -1191 0
-1191 -57 3 -58 3 -3 1243 -2 1243 512 -3 c453 -3 520 -6 573 -21z m1795 -821
c0 -924 1 -935 59 -1096 93 -254 278 -406 561 -460 73 -14 268 -14 354 0 273
44 465 200 561 455 60 159 58 123 62 1073 l4 872 59 0 60 0 0 -849 c0 -932 0
-934 -61 -1116 -94 -279 -283 -455 -574 -532 -89 -23 -120 -26 -275 -27 -180
-1 -236 7 -360 46 -326 103 -526 378 -570 780 -6 60 -10 407 -10 898 l0 800
65 0 65 0 0 -844z m3485 317 c214 -291 453 -613 530 -718 78 -104 278 -375
445 -602 l305 -412 3 1129 2 1130 60 0 60 0 0 -1244 0 -1244 -61 2 -62 1 -601
822 c-331 451 -707 966 -836 1143 l-235 321 -3 -1146 -2 -1146 -58 3 -57 3 -3
1243 -2 1242 63 0 62 0 390 -527z m4175 472 l0 -55 -700 0 -700 0 0 -520 0
-520 685 0 685 0 0 -55 0 -55 -685 0 -685 0 0 -555 0 -555 700 0 700 0 0 -60
0 -60 -760 0 -760 0 0 1245 0 1245 760 0 760 0 0 -55z m2906 -1180 c260 -676
474 -1233 474 -1237 0 -5 -134 -8 -298 -8 l-298 0 -152 438 c-84 241 -152 443
-152 450 0 11 -369 1041 -377 1051 -2 2 -5 2 -8 0 -7 -8 -377 -1031 -381
-1056 -2 -12 -71 -215 -153 -450 l-149 -428 -300 -3 -301 -2 23 62 c22 57 338
876 637 1653 66 171 159 412 207 537 l87 228 333 -3 333 -2 475 -1230z m1824
-5 l0 -1240 -260 0 -260 0 0 1240 0 1240 260 0 260 0 0 -1240z m2381 1212
c474 -102 797 -373 933 -782 54 -164 70 -282 63 -479 -10 -281 -75 -488 -216
-688 -182 -258 -488 -435 -845 -488 -84 -12 -211 -15 -670 -15 l-566 0 0 1241
0 1240 603 -4 c563 -4 608 -5 698 -25z m-25041 -12 c-6 -11 -20 -25 -33 -31
-18 -10 -17 -6 7 20 34 36 41 39 26 11z m4961 -761 c13 -26 7 -24 -22 7 -17
19 -19 23 -6 18 10 -3 22 -15 28 -25z m95 -96 l17 -26 -32 22 c-17 12 -31 26
-31 31 0 16 28 -1 46 -27z m-1128 -2525 c-24 -28 -55 -58 -69 -67 -22 -14 -21
-12 6 20 63 73 89 99 98 99 5 0 -10 -23 -35 -52z"/>
<path d="M13840 17996 c0 -2 8 -10 18 -17 15 -13 16 -12 3 4 -13 16 -21 21
-21 13z"/>
<path d="M13765 17940 c10 -11 20 -20 23 -20 3 0 -3 9 -13 20 -10 11 -20 20
-23 20 -3 0 3 -9 13 -20z"/>
<path d="M13950 17786 c0 -2 8 -10 18 -17 15 -13 16 -12 3 4 -13 16 -21 21
-21 13z"/>
<path d="M14070 17681 c46 -44 86 -78 89 -75 8 7 -77 90 -128 124 -35 24 -27
13 39 -49z"/>
<path d="M11984 17598 l-19 -23 23 19 c12 11 22 21 22 23 0 8 -8 2 -26 -19z"/>
<path d="M12059 17573 c-13 -16 -12 -17 4 -4 16 13 21 21 13 21 -2 0 -10 -8
-17 -17z"/>
<path d="M14380 17222 c0 -5 28 -37 63 -73 68 -72 58 -54 -16 28 -26 29 -47
49 -47 45z"/>
<path d="M11575 17211 c-6 -5 -21 -11 -35 -13 -22 -3 -44 -38 -23 -38 10 0 81
59 73 60 -4 0 -10 -4 -15 -9z"/>
<path d="M11430 17071 c-19 -16 -32 -33 -28 -36 9 -10 24 1 48 35 26 37 24 37
-20 1z"/>
<path d="M11554 16898 l-19 -23 23 19 c21 18 27 26 19 26 -2 0 -12 -10 -23
-22z"/>
<path d="M11427 16742 c-26 -27 -36 -49 -17 -37 10 6 53 65 48 65 -3 0 -16
-13 -31 -28z"/>
<path d="M15904 16468 c50 -49 94 -88 98 -88 4 0 -19 23 -50 52 -114 104 -137
121 -48 36z"/>
<path d="M11069 16343 c-13 -16 -12 -17 4 -4 9 7 17 15 17 17 0 8 -8 3 -21
-13z"/>
<path d="M10942 16220 c-13 -17 -17 -27 -8 -24 11 4 41 54 33 54 -2 0 -13 -13
-25 -30z"/>
<path d="M10889 16153 l-24 -28 28 24 c15 14 27 26 27 28 0 8 -8 1 -31 -24z"/>
<path d="M10399 15723 c-13 -16 -12 -17 4 -4 9 7 17 15 17 17 0 8 -8 3 -21
-13z"/>
<path d="M14905 13540 c-3 -5 -1 -10 4 -10 6 0 11 5 11 10 0 6 -2 10 -4 10 -3
0 -8 -4 -11 -10z"/>
<path d="M14878 13509 c-10 -5 -23 -20 -29 -32 -10 -18 -6 -17 20 7 39 37 42
45 9 25z"/>
<path d="M12235 13270 c10 -11 20 -20 23 -20 3 0 -3 9 -13 20 -10 11 -20 20
-23 20 -3 0 3 -9 13 -20z"/>
<path d="M12484 17098 l-19 -23 23 19 c12 11 22 21 22 23 0 8 -8 2 -26 -19z"/>
<path d="M12490 16316 c0 -212 3 -386 6 -386 9 0 458 330 462 339 1 5 -84 86
-190 182 -106 96 -212 191 -235 213 l-43 39 0 -387z"/>
<path d="M12297 16501 c-4 -17 -3 -21 5 -13 5 5 8 16 6 23 -3 8 -7 3 -11 -10z"/>
<path d="M12380 16336 c0 -8 5 -18 10 -21 6 -3 10 1 10 9 0 8 -4 18 -10 21 -5
3 -10 -1 -10 -9z"/>
<path d="M12195 15739 c-4 -6 -5 -12 -2 -15 2 -3 7 2 10 11 7 17 1 20 -8 4z"/>
<path d="M12492 15690 c7 -11 16 -20 20 -20 5 0 8 9 8 20 0 13 -7 20 -20 20
-18 0 -19 -2 -8 -20z"/>
<path d="M12579 15633 c-26 -31 -69 -99 -69 -108 0 -5 14 4 30 20 17 16 29 34
27 39 -2 6 6 15 17 21 21 11 35 45 18 45 -5 0 -15 -8 -23 -17z"/>
<path d="M12355 15523 c5 -21 8 -55 8 -75 -1 -21 3 -36 8 -33 4 3 15 -8 24
-24 14 -29 52 -58 61 -48 3 2 0 16 -6 31 -5 15 -7 38 -4 51 6 25 -12 61 -55
108 -34 37 -45 34 -36 -10z"/>
<path d="M12330 15347 c0 -1 -4 -18 -10 -37 l-9 -35 19 24 c21 25 26 51 10 51
-5 0 -10 -1 -10 -3z"/>
<path d="M12730 15136 c0 -14 71 -156 78 -156 15 0 0 54 -18 67 -10 7 -25 31
-34 53 -13 33 -26 51 -26 36z"/>
<path d="M13257 14781 c6 -76 22 -134 23 -79 0 15 8 43 17 63 l17 35 -31 29
-31 28 5 -76z"/>
<path d="M13272 14635 c-6 -14 -8 -25 -3 -25 8 0 23 41 17 47 -1 2 -8 -8 -14
-22z"/>
<path d="M12262 14500 c-27 -36 -27 -46 -3 -59 16 -9 19 -5 25 36 3 25 5 48 3
50 -2 1 -13 -11 -25 -27z"/>
<path d="M12485 14489 c-12 -35 -25 -111 -20 -120 14 -22 23 -5 28 58 6 64 3
91 -8 62z"/>
<path d="M12324 14399 c-3 -6 -1 -16 5 -22 8 -8 11 -5 11 11 0 24 -5 28 -16
11z"/>
<path d="M12172 14300 c0 -14 2 -19 5 -12 2 6 2 18 0 25 -3 6 -5 1 -5 -13z"/>
<path d="M12281 14304 c0 -11 3 -14 6 -6 3 7 2 16 -1 19 -3 4 -6 -2 -5 -13z"/>
<path d="M13339 15733 c-13 -16 -12 -17 4 -4 16 13 21 21 13 21 -2 0 -10 -8
-17 -17z"/>
<path d="M13130 15729 c0 -3 -13 -42 -30 -87 -16 -45 -27 -82 -24 -82 3 0 21
34 40 76 26 55 33 79 25 87 -6 6 -11 9 -11 6z"/>
<path d="M13271 15644 c0 -11 3 -14 6 -6 3 7 2 16 -1 19 -3 4 -6 -2 -5 -13z"/>
<path d="M14310 15030 c0 -5 5 -10 11 -10 5 0 7 5 4 10 -3 6 -8 10 -11 10 -2
0 -4 -4 -4 -10z"/>
<path d="M35007 16213 c-4 -3 -7 -354 -7 -780 l0 -773 249 0 c271 0 365 9 481
46 107 34 194 88 280 174 152 152 220 327 220 565 0 242 -77 437 -230 578
-118 109 -256 168 -441 187 -111 11 -542 14 -552 3z"/>
</g>
</svg>
